<svg width="44" height="24" viewBox="0 0 44 24" fill="none" xmlns="http://www.w3.org/2000/svg">
<rect width="44" height="24" rx="8" fill="#F7F7F7"/>
<path d="M10.6666 10L16 6L21.3333 10" stroke="#4C4C4C" stroke-linecap="round" stroke-linejoin="round"/>
<path d="M11.3334 12.1666L16 8.66663L20.6667 12.1666V18H11.3334V12.1666Z" stroke="#4C4C4C" stroke-linecap="round" stroke-linejoin="round"/>
<path d="M16 12.6666V15.3333" stroke="#4C4C4C" stroke-linecap="round"/>
<path d="M14.6666 14H17.3333" stroke="#4C4C4C" stroke-linecap="round"/>
<path d="M31.8097 16.1193C31.2415 16.1193 30.733 16.0128 30.2841 15.7997C29.8352 15.5838 29.4787 15.2884 29.2145 14.9134C28.9531 14.5384 28.8139 14.1094 28.7969 13.6264H30.331C30.3594 13.9844 30.5142 14.277 30.7955 14.5043C31.0767 14.7287 31.4148 14.8409 31.8097 14.8409C32.1193 14.8409 32.3949 14.7699 32.6364 14.6278C32.8778 14.4858 33.0682 14.2884 33.2074 14.0355C33.3466 13.7827 33.4148 13.4943 33.4119 13.1705C33.4148 12.8409 33.3452 12.5483 33.2031 12.2926C33.0611 12.0369 32.8665 11.8366 32.6193 11.6918C32.3722 11.544 32.0881 11.4702 31.767 11.4702C31.5057 11.4673 31.2486 11.5156 30.9957 11.6151C30.7429 11.7145 30.5426 11.8452 30.3949 12.0071L28.9673 11.7727L29.4233 7.27273H34.4858V8.59375H30.7315L30.4801 10.9077H30.5312C30.6932 10.7173 30.9219 10.5597 31.2173 10.4347C31.5128 10.3068 31.8366 10.2429 32.1889 10.2429C32.7173 10.2429 33.1889 10.3679 33.6037 10.6179C34.0185 10.8651 34.3452 11.206 34.5838 11.6406C34.8224 12.0753 34.9418 12.5724 34.9418 13.1321C34.9418 13.7088 34.8082 14.223 34.5412 14.6747C34.277 15.1236 33.9091 15.4773 33.4375 15.7358C32.9688 15.9915 32.4261 16.1193 31.8097 16.1193Z" fill="#4C4C4C"/>
</svg>
