<svg width="44" height="24" viewBox="0 0 44 24" fill="none" xmlns="http://www.w3.org/2000/svg">
<rect width="44" height="24" rx="8" fill="#F7F7F7"/>
<path d="M22 9.33337L18 12.3334L22 15.3334V9.33337Z" stroke="#4C4C4C" stroke-linecap="round" stroke-linejoin="round"/>
<path d="M16.9333 8H11.0667C10.4776 8 10 8.51167 10 9.14286V14.8571C10 15.4883 10.4776 16 11.0667 16H16.9333C17.5224 16 18 15.4883 18 14.8571V9.14286C18 8.51167 17.5224 8 16.9333 8Z" stroke="#4C4C4C" stroke-linecap="round" stroke-linejoin="round"/>
<path d="M31.7202 16.1193C31.1861 16.1193 30.706 16.017 30.2798 15.8125C29.8565 15.6051 29.5185 15.321 29.2656 14.9602C29.0128 14.5994 28.8778 14.1875 28.8608 13.7244H30.1392C30.1705 14.0994 30.3366 14.4077 30.6378 14.6491C30.9389 14.8906 31.2997 15.0114 31.7202 15.0114C32.0554 15.0114 32.3523 14.9347 32.6108 14.7812C32.8722 14.625 33.0767 14.4105 33.2244 14.1378C33.375 13.8651 33.4503 13.554 33.4503 13.2045C33.4503 12.8494 33.3736 12.5327 33.2202 12.2543C33.0668 11.9759 32.8551 11.7571 32.5852 11.598C32.3182 11.4389 32.0114 11.358 31.6648 11.3551C31.4006 11.3551 31.1349 11.4006 30.8679 11.4915C30.6009 11.5824 30.3849 11.7017 30.2202 11.8494L29.0142 11.6705L29.5043 7.27273H34.3026V8.40199H30.5994L30.3224 10.8438H30.3736C30.544 10.679 30.7699 10.5412 31.0511 10.4304C31.3352 10.3196 31.6392 10.2642 31.9631 10.2642C32.4943 10.2642 32.9673 10.3906 33.3821 10.6435C33.7997 10.8963 34.1278 11.2415 34.3665 11.679C34.608 12.1136 34.7273 12.6136 34.7244 13.179C34.7273 13.7443 34.5994 14.2486 34.3409 14.6918C34.0852 15.1349 33.7301 15.4844 33.2756 15.7401C32.8239 15.9929 32.3054 16.1193 31.7202 16.1193Z" fill="#4C4C4C"/>
</svg>
